dataset
version=1
nRows=28
nColumns=39
inDegrees=no
endheader
time	sternoclavicular_r2	sternoclavicular_r3	unrotscap_r3	unrotscap_r2	acromioclavicular_r2	acromioclavicular_r3	acromioclavicular_r1	unrothum_r1	unrothum_r3	unrothum_r2	elv_angle	shoulder_elv	shoulder1_r2	shoulder_rot	elbow_flexion	pro_sup	deviation	flexion	cmc_abduction	cmc_flexion	mp_flexion	ip_flexion	mcp2_flexion	mcp2_abduction	pm2_flexion	md2_flexion	mcp3_flexion	mcp3_abduction	pm3_flexion	md3_flexion	mcp4_flexion	mcp4_abduction	pm4_flexion	md4_flexion	mcp5_flexion	mcp5_abduction	pm5_flexion	md5_flexion
3.715000	-0.022398	-0.289378	0.075523	0.115741	0.004303	0.537687	0.250228	0.232811	0.540123	-0.070472	0.121078	0.027437	0.146525	0.146525	2.276355	1.287792	0.000000	0.000000	0.000000	0.000000	0.000000	0.000000	0.000000	0.000000	0.000000	0.000000	0.000000	0.000000	0.000000	0.000000	0.000000	0.000000	0.000000	0.000000	0.000000	0.000000	0.000000	0.000000
3.720000	-0.021950	-0.289816	0.076021	0.115703	0.004415	0.537036	0.249310	0.231909	0.539260	-0.069747	0.121393	0.027437	0.146525	0.146525	2.275551	1.287843	0.000000	0.000000	0.000000	0.000000	0.000000	0.000000	0.000000	0.000000	0.000000	0.000000	0.000000	0.000000	0.000000	0.000000	0.000000	0.000000	0.000000	0.000000	0.000000	0.000000	0.000000	0.000000
3.725000	-0.021497	-0.290261	0.076526	0.115663	0.004524	0.536384	0.248382	0.231002	0.538394	-0.069018	0.121708	0.027437	0.146525	0.146525	2.274729	1.287895	0.000000	0.000000	0.000000	0.000000	0.000000	0.000000	0.000000	0.000000	0.000000	0.000000	0.000000	0.000000	0.000000	0.000000	0.000000	0.000000	0.000000	0.000000	0.000000	0.000000	0.000000	0.000000
3.730000	-0.021039	-0.290712	0.077038	0.115619	0.004630	0.535733	0.247444	0.230092	0.537525	-0.068287	0.122025	0.027437	0.146525	0.146525	2.273889	1.287947	0.000000	0.000000	0.000000	0.000000	0.000000	0.000000	0.000000	0.000000	0.000000	0.000000	0.000000	0.000000	0.000000	0.000000	0.000000	0.000000	0.000000	0.000000	0.000000	0.000000	0.000000	0.000000
3.735000	-0.020576	-0.291169	0.077558	0.115573	0.004732	0.535082	0.246497	0.229177	0.536653	-0.067554	0.122342	0.027437	0.146525	0.146525	2.273031	1.288000	0.000000	0.000000	0.000000	0.000000	0.000000	0.000000	0.000000	0.000000	0.000000	0.000000	0.000000	0.000000	0.000000	0.000000	0.000000	0.000000	0.000000	0.000000	0.000000	0.000000	0.000000	0.000000
3.740000	-0.020107	-0.291632	0.078085	0.115523	0.004831	0.534432	0.245541	0.228258	0.535778	-0.066818	0.122659	0.027437	0.146525	0.146525	2.272157	1.288053	0.000000	0.000000	0.000000	0.000000	0.000000	0.000000	0.000000	0.000000	0.000000	0.000000	0.000000	0.000000	0.000000	0.000000	0.000000	0.000000	0.000000	0.000000	0.000000	0.000000	0.000000	0.000000
3.745000	-0.019633	-0.292102	0.078620	0.115469	0.004927	0.533782	0.244574	0.227336	0.534900	-0.066080	0.122978	0.027437	0.146525	0.146525	2.271268	1.288107	0.000000	0.000000	0.000000	0.000000	0.000000	0.000000	0.000000	0.000000	0.000000	0.000000	0.000000	0.000000	0.000000	0.000000	0.000000	0.000000	0.000000	0.000000	0.000000	0.000000	0.000000	0.000000
3.750000	-0.019154	-0.292577	0.079163	0.115412	0.005019	0.533134	0.243599	0.226410	0.534020	-0.065340	0.123296	0.027437	0.146525	0.146525	2.270364	1.288161	0.000000	0.000000	0.000000	0.000000	0.000000	0.000000	0.000000	0.000000	0.000000	0.000000	0.000000	0.000000	0.000000	0.000000	0.000000	0.000000	0.000000	0.000000	0.000000	0.000000	0.000000	0.000000
3.755000	-0.018670	-0.293059	0.079714	0.115351	0.005107	0.532486	0.242613	0.225481	0.533137	-0.064599	0.123615	0.027437	0.146525	0.146525	2.269447	1.288215	0.000000	0.000000	0.000000	0.000000	0.000000	0.000000	0.000000	0.000000	0.000000	0.000000	0.000000	0.000000	0.000000	0.000000	0.000000	0.000000	0.000000	0.000000	0.000000	0.000000	0.000000	0.000000
3.760000	-0.018181	-0.293547	0.080273	0.115286	0.005190	0.531840	0.241617	0.224549	0.532251	-0.063856	0.123934	0.027437	0.146525	0.146525	2.268516	1.288269	0.000000	0.000000	0.000000	0.000000	0.000000	0.000000	0.000000	0.000000	0.000000	0.000000	0.000000	0.000000	0.000000	0.000000	0.000000	0.000000	0.000000	0.000000	0.000000	0.000000	0.000000	0.000000
3.765000	-0.017687	-0.294041	0.080840	0.115218	0.005270	0.531196	0.240612	0.223614	0.531363	-0.063111	0.124253	0.027437	0.146525	0.146525	2.267573	1.288324	0.000000	0.000000	0.000000	0.000000	0.000000	0.000000	0.000000	0.000000	0.000000	0.000000	0.000000	0.000000	0.000000	0.000000	0.000000	0.000000	0.000000	0.000000	0.000000	0.000000	0.000000	0.000000
3.770000	-0.017188	-0.294542	0.081415	0.115145	0.005345	0.530554	0.239596	0.222677	0.530472	-0.062366	0.124572	0.027437	0.146525	0.146525	2.266619	1.288379	0.000000	0.000000	0.000000	0.000000	0.000000	0.000000	0.000000	0.000000	0.000000	0.000000	0.000000	0.000000	0.000000	0.000000	0.000000	0.000000	0.000000	0.000000	0.000000	0.000000	0.000000	0.000000
3.775000	-0.016684	-0.295049	0.082000	0.115068	0.005416	0.529913	0.238570	0.221736	0.529579	-0.061619	0.124890	0.027437	0.146525	0.146525	2.265653	1.288433	0.000000	0.000000	0.000000	0.000000	0.000000	0.000000	0.000000	0.000000	0.000000	0.000000	0.000000	0.000000	0.000000	0.000000	0.000000	0.000000	0.000000	0.000000	0.000000	0.000000	0.000000	0.000000
3.780000	-0.016175	-0.295562	0.082593	0.114987	0.005482	0.529274	0.237533	0.220793	0.528684	-0.060872	0.125209	0.027437	0.146525	0.146525	2.264678	1.288488	0.000000	0.000000	0.000000	0.000000	0.000000	0.000000	0.000000	0.000000	0.000000	0.000000	0.000000	0.000000	0.000000	0.000000	0.000000	0.000000	0.000000	0.000000	0.000000	0.000000	0.000000	0.000000
3.785000	-0.015662	-0.296082	0.083196	0.114901	0.005543	0.528638	0.236485	0.219848	0.527786	-0.060123	0.125527	0.027437	0.146525	0.146525	2.263693	1.288543	0.000000	0.000000	0.000000	0.000000	0.000000	0.000000	0.000000	0.000000	0.000000	0.000000	0.000000	0.000000	0.000000	0.000000	0.000000	0.000000	0.000000	0.000000	0.000000	0.000000	0.000000	0.000000
3.790000	-0.015144	-0.296608	0.083808	0.114811	0.005599	0.528004	0.235427	0.218900	0.526886	-0.059373	0.125845	0.027437	0.146525	0.146525	2.262699	1.288598	0.000000	0.000000	0.000000	0.000000	0.000000	0.000000	0.000000	0.000000	0.000000	0.000000	0.000000	0.000000	0.000000	0.000000	0.000000	0.000000	0.000000	0.000000	0.000000	0.000000	0.000000	0.000000
3.795000	-0.014621	-0.297140	0.084429	0.114717	0.005650	0.527373	0.234357	0.217950	0.525984	-0.058623	0.126162	0.027437	0.146525	0.146525	2.261697	1.288653	0.000000	0.000000	0.000000	0.000000	0.000000	0.000000	0.000000	0.000000	0.000000	0.000000	0.000000	0.000000	0.000000	0.000000	0.000000	0.000000	0.000000	0.000000	0.000000	0.000000	0.000000	0.000000
3.800000	-0.014094	-0.297680	0.085061	0.114617	0.005696	0.526745	0.233275	0.216997	0.525079	-0.057872	0.126479	0.027437	0.146525	0.146525	2.260687	1.288707	0.000000	0.000000	0.000000	0.000000	0.000000	0.000000	0.000000	0.000000	0.000000	0.000000	0.000000	0.000000	0.000000	0.000000	0.000000	0.000000	0.000000	0.000000	0.000000	0.000000	0.000000	0.000000
3.805000	-0.013562	-0.298225	0.085703	0.114513	0.005737	0.526119	0.232181	0.216043	0.524171	-0.057120	0.126795	0.027437	0.146525	0.146525	2.259670	1.288762	0.000000	0.000000	0.000000	0.000000	0.000000	0.000000	0.000000	0.000000	0.000000	0.000000	0.000000	0.000000	0.000000	0.000000	0.000000	0.000000	0.000000	0.000000	0.000000	0.000000	0.000000	0.000000
3.810000	-0.013026	-0.298778	0.086355	0.114404	0.005772	0.525496	0.231076	0.215086	0.523261	-0.056368	0.127110	0.027437	0.146525	0.146525	2.258647	1.288816	0.000000	0.000000	0.000000	0.000000	0.000000	0.000000	0.000000	0.000000	0.000000	0.000000	0.000000	0.000000	0.000000	0.000000	0.000000	0.000000	0.000000	0.000000	0.000000	0.000000	0.000000	0.000000
3.815000	-0.012485	-0.299337	0.087019	0.114290	0.005802	0.524876	0.229957	0.214128	0.522348	-0.055615	0.127425	0.027437	0.146525	0.146525	2.257617	1.288870	0.000000	0.000000	0.000000	0.000000	0.000000	0.000000	0.000000	0.000000	0.000000	0.000000	0.000000	0.000000	0.000000	0.000000	0.000000	0.000000	0.000000	0.000000	0.000000	0.000000	0.000000	0.000000
3.820000	-0.011940	-0.299903	0.087693	0.114170	0.005825	0.524259	0.228826	0.213167	0.521432	-0.054861	0.127739	0.027437	0.146525	0.146525	2.256580	1.288924	0.000000	0.000000	0.000000	0.000000	0.000000	0.000000	0.000000	0.000000	0.000000	0.000000	0.000000	0.000000	0.000000	0.000000	0.000000	0.000000	0.000000	0.000000	0.000000	0.000000	0.000000	0.000000
3.825000	-0.011390	-0.300477	0.088379	0.114045	0.005843	0.523646	0.227681	0.212204	0.520513	-0.054107	0.128052	0.027437	0.146525	0.146525	2.255538	1.288978	0.000000	0.000000	0.000000	0.000000	0.000000	0.000000	0.000000	0.000000	0.000000	0.000000	0.000000	0.000000	0.000000	0.000000	0.000000	0.000000	0.000000	0.000000	0.000000	0.000000	0.000000	0.000000
3.830000	-0.010837	-0.301057	0.089078	0.113915	0.005855	0.523035	0.226522	0.211240	0.519592	-0.053353	0.128365	0.027437	0.146525	0.146525	2.254490	1.289032	0.000000	0.000000	0.000000	0.000000	0.000000	0.000000	0.000000	0.000000	0.000000	0.000000	0.000000	0.000000	0.000000	0.000000	0.000000	0.000000	0.000000	0.000000	0.000000	0.000000	0.000000	0.000000
3.835000	-0.010279	-0.301644	0.089788	0.113780	0.005861	0.522429	0.225349	0.210274	0.518666	-0.052597	0.128676	0.027437	0.146525	0.146525	2.253437	1.289085	0.000000	0.000000	0.000000	0.000000	0.000000	0.000000	0.000000	0.000000	0.000000	0.000000	0.000000	0.000000	0.000000	0.000000	0.000000	0.000000	0.000000	0.000000	0.000000	0.000000	0.000000	0.000000
3.840000	-0.009717	-0.302238	0.090511	0.113639	0.005861	0.521825	0.224162	0.209306	0.517738	-0.051841	0.128987	0.027437	0.146525	0.146525	2.252377	1.289138	0.000000	0.000000	0.000000	0.000000	0.000000	0.000000	0.000000	0.000000	0.000000	0.000000	0.000000	0.000000	0.000000	0.000000	0.000000	0.000000	0.000000	0.000000	0.000000	0.000000	0.000000	0.000000
3.845000	-0.009150	-0.302840	0.091248	0.113492	0.005854	0.521226	0.222960	0.208336	0.516806	-0.051085	0.129297	0.027437	0.146525	0.146525	2.251312	1.289191	0.000000	0.000000	0.000000	0.000000	0.000000	0.000000	0.000000	0.000000	0.000000	0.000000	0.000000	0.000000	0.000000	0.000000	0.000000	0.000000	0.000000	0.000000	0.000000	0.000000	0.000000	0.000000
3.850000	-0.008580	-0.303448	0.091997	0.113339	0.005841	0.520630	0.221743	0.207364	0.515870	-0.050328	0.129605	0.027437	0.146525	0.146525	2.250241	1.289244	0.000000	0.000000	0.000000	0.000000	0.000000	0.000000	0.000000	0.000000	0.000000	0.000000	0.000000	0.000000	0.000000	0.000000	0.000000	0.000000	0.000000	0.000000	0.000000	0.000000	0.000000	0.000000
